<svg width="17" height="17" viewBox="0 0 17 17" fill="none" xmlns="http://www.w3.org/2000/svg">
<path d="M14.7292 11.5711C14.7292 13.9978 13.2825 15.4444 10.8558 15.4444H10.0625C9.69583 15.4444 9.39583 15.1444 9.39583 14.7778V10.9311C9.39583 10.7511 9.54249 10.5977 9.72249 10.5977L10.8958 10.5778C10.9892 10.5711 11.0692 10.5044 11.0892 10.4111L11.3225 9.13775C11.327 9.10889 11.3252 9.07939 11.3173 9.05128C11.3093 9.02318 11.2953 8.99714 11.2763 8.97496C11.2573 8.95278 11.2337 8.93498 11.2071 8.9228C11.1806 8.91063 11.1517 8.90435 11.1225 8.90442L9.70249 8.92442C9.51583 8.92442 9.36916 8.77775 9.36249 8.59775L9.33583 6.96442C9.33583 6.85775 9.42249 6.76442 9.53583 6.76442L11.1358 6.73775C11.2492 6.73775 11.3358 6.65108 11.3358 6.53775L11.3092 4.93775C11.3092 4.82442 11.2225 4.73775 11.1092 4.73775L9.30916 4.76442C9.0464 4.76841 8.78701 4.82421 8.54586 4.92863C8.30471 5.03305 8.08653 5.18403 7.90383 5.37292C7.72113 5.56181 7.57751 5.7849 7.48118 6.0294C7.38486 6.2739 7.33773 6.535 7.34249 6.79775L7.37583 8.63108C7.38249 8.81775 7.23583 8.96442 7.04916 8.97108L6.24916 8.98442C6.13583 8.98442 6.04916 9.07108 6.04916 9.18442L6.06916 10.4511C6.06916 10.5644 6.15583 10.6511 6.26916 10.6511L7.06916 10.6377C7.25583 10.6377 7.40249 10.7844 7.40916 10.9644L7.46916 14.7644C7.47583 15.1377 7.17583 15.4444 6.80249 15.4444H5.26916C2.84249 15.4444 1.39583 13.9978 1.39583 11.5644V5.98442C1.39583 3.55775 2.84249 2.11108 5.26916 2.11108H10.8558C13.2825 2.11108 14.7292 3.55775 14.7292 5.98442V11.5711Z" fill="#797979"/>
</svg>
