<svg width="17" height="17" viewBox="0 0 17 17" fill="none" xmlns="http://www.w3.org/2000/svg">
<g clip-path="url(#clip0_12_4148)">
<path d="M13.9144 2.77777C14.3073 2.77777 14.6841 2.93386 14.9619 3.21169C15.2397 3.48952 15.3958 3.86634 15.3958 4.25925V14.6296C15.3958 15.0225 15.2397 15.3994 14.9619 15.6772C14.6841 15.955 14.3073 16.1111 13.9144 16.1111H3.54398C3.15107 16.1111 2.77425 15.955 2.49642 15.6772C2.21858 15.3994 2.0625 15.0225 2.0625 14.6296V4.25925C2.0625 3.86634 2.21858 3.48952 2.49642 3.21169C2.77425 2.93386 3.15107 2.77777 3.54398 2.77777H13.9144ZM13.544 14.2593V10.3333C13.544 9.69288 13.2896 9.07866 12.8367 8.62579C12.3838 8.17293 11.7696 7.91851 11.1292 7.91851C10.4995 7.91851 9.7662 8.3037 9.41065 8.88147V8.05925H7.34398V14.2593H9.41065V10.6074C9.41065 10.037 9.86991 9.57036 10.4403 9.57036C10.7153 9.57036 10.9791 9.67962 11.1736 9.8741C11.3681 10.0686 11.4773 10.3324 11.4773 10.6074V14.2593H13.544ZM4.93657 6.89629C5.26662 6.89629 5.58315 6.76518 5.81653 6.5318C6.04991 6.29842 6.18102 5.98189 6.18102 5.65184C6.18102 4.96296 5.62546 4.39999 4.93657 4.39999C4.60456 4.39999 4.28615 4.53188 4.05138 4.76665C3.81661 5.00142 3.68472 5.31983 3.68472 5.65184C3.68472 6.34073 4.24769 6.89629 4.93657 6.89629ZM5.9662 14.2593V8.05925H3.91435V14.2593H5.9662Z" fill="#797979"/>
</g>
<defs>
<clipPath id="clip0_12_4148">
<rect width="16" height="16" fill="white" transform="translate(0.0625 0.777771)"/>
</clipPath>
</defs>
</svg>
