<svg width="17" height="17" viewBox="0 0 17 17" fill="none" xmlns="http://www.w3.org/2000/svg">
<path d="M15.0358 4.77779C14.5225 5.01112 13.9692 5.16446 13.3958 5.23779C13.9825 4.88446 14.4358 4.32446 14.6492 3.65112C14.0958 3.98446 13.4825 4.21779 12.8358 4.35112C12.3092 3.77779 11.5692 3.44446 10.7292 3.44446C9.16251 3.44446 7.88251 4.72446 7.88251 6.30446C7.88251 6.53112 7.90917 6.75112 7.95584 6.95779C5.58251 6.83779 3.46917 5.69779 2.06251 3.97112C1.81584 4.39112 1.67584 4.88446 1.67584 5.40446C1.67584 6.39779 2.17584 7.27779 2.94917 7.77779C2.47584 7.77779 2.03584 7.64446 1.64917 7.44446V7.46446C1.64917 8.85112 2.63584 10.0111 3.94251 10.2711C3.52299 10.3859 3.08257 10.4019 2.65584 10.3178C2.83691 10.8861 3.19153 11.3834 3.66985 11.7397C4.14817 12.0961 4.72614 12.2936 5.32251 12.3045C4.31159 13.1047 3.0585 13.5373 1.76917 13.5311C1.54251 13.5311 1.31584 13.5178 1.08917 13.4911C2.35584 14.3045 3.86251 14.7778 5.47584 14.7778C10.7292 14.7778 13.6158 10.4178 13.6158 6.63779C13.6158 6.51112 13.6158 6.39112 13.6092 6.26446C14.1692 5.86446 14.6492 5.35779 15.0358 4.77779Z" fill="#797979"/>
</svg>
