<svg width="80" height="80" viewBox="0 0 80 80" fill="none" xmlns="http://www.w3.org/2000/svg">
<path d="M46.1164 15.9961C51.8701 21.7499 55.6026 29.2149 56.7539 37.2699L60.0001 59.9999L37.2701 56.7524C29.2151 55.6011 21.7501 51.8686 15.9964 46.1149C10.3401 40.4586 6.63512 33.1461 5.41887 25.2411L2.54137 6.53488C2.37137 5.43238 2.73762 4.31488 3.52637 3.52613C4.31512 2.73738 5.43262 2.37113 6.53512 2.54113L25.2426 5.41863C33.1476 6.63488 40.4601 10.3399 46.1164 15.9961Z" fill="#DB9B7C"/>
<path d="M5.79512 27.3061C5.65012 26.6224 5.52512 25.9349 5.41887 25.2411L2.54137 6.53488C2.37137 5.43238 2.73762 4.31488 3.52637 3.52613C4.31512 2.73738 5.43262 2.37113 6.53512 2.54113L25.2426 5.41863C25.9351 5.52488 26.6239 5.65113 27.3076 5.79613C28.2339 7.83988 28.7501 10.1099 28.7501 12.4999C28.7501 21.4749 21.4751 28.7499 12.5001 28.7499C10.1089 28.7499 7.83887 28.2336 5.79512 27.3061Z" fill="#EFBE9A"/>
<path d="M40.27 57.1812L37.27 56.7525C29.215 55.6013 21.75 51.8687 15.9963 46.115C14.215 44.335 12.6275 42.3888 11.25 40.3125V44.6362C11.25 47.9562 13.0187 51.025 15.8925 52.6888L28.0737 59.7412C32.0562 62.045 37.125 61.0938 40 57.5L40.27 57.1812Z" fill="#E47C6E"/>
<path d="M58.75 50L60.675 46.15C63.4175 40.6637 63.6062 34.2488 61.19 28.61L59.1663 23.8875C55.9213 16.3175 48.53 11.375 40.3125 11.2525L40.3137 11.25C42.39 12.6275 44.335 14.215 46.1163 15.9963C51.87 21.75 55.6025 29.215 56.7537 37.27L58.575 50.025L58.75 50Z" fill="#E47C6E"/>
<path d="M77.5001 61.2499C73.4876 58.8424 68.7038 58.0662 64.1351 59.0812L60.0001 59.9999L59.0813 64.1349C58.0663 68.7037 58.8426 73.4874 61.2501 77.4999L66.2501 66.2499L77.5001 61.2499Z" fill="#E47C6E"/>
<path d="M15 12.4985C13.6212 12.4985 12.5 11.3773 12.5 9.99853C12.5 8.61978 13.6212 7.49854 15 7.49854C16.3788 7.49854 17.5 8.61978 17.5 9.99853C17.4988 11.3773 16.3775 12.4985 15 12.4985Z" fill="#606060"/>
<path d="M4.62997 12.8625L3.31372 11.5587L3.93622 15.605C7.24872 18.4412 11.4125 20 15.8212 20H18.7487V17.5H15.8212C11.5937 17.5 7.62122 15.8537 4.62997 12.8625Z" fill="#DB9B7C"/>
<path d="M35 23.7487H30V21.2488H34.4812L36.25 19.4812V15H38.75V20C38.75 20.3325 38.6188 20.65 38.385 20.885L35.885 23.385C35.65 23.6175 35.3313 23.7487 35 23.7487Z" fill="#EFBE9A"/>
<path d="M20 38.7487H15V36.2487H19.4812L21.25 34.4812V30H23.75V35C23.75 35.3325 23.6188 35.65 23.385 35.885L20.885 38.385C20.65 38.6175 20.3313 38.7487 20 38.7487Z" fill="#EFBE9A"/>
<path d="M31.25 34.9987H26.25V32.4987H30.7312L32.5 30.7312V26.25H35V31.25C35 31.5825 34.8688 31.9 34.635 32.135L32.135 34.635C31.9 34.8675 31.5813 34.9987 31.25 34.9987Z" fill="#EFBE9A"/>
<path d="M42.5 31.2487H37.5V28.7487H41.9812L43.75 26.9812V22.5H46.25V27.5C46.25 27.8325 46.1188 28.15 45.885 28.385L43.385 30.885C43.15 31.1175 42.8313 31.2487 42.5 31.2487Z" fill="#EFBE9A"/>
<path d="M27.5 46.2487H22.5V43.7487H26.9812L28.75 41.9812V37.5H31.25V42.5C31.25 42.8325 31.1188 43.15 30.885 43.385L28.385 45.885C28.15 46.1175 27.8313 46.2487 27.5 46.2487Z" fill="#EFBE9A"/>
<path d="M38.75 42.4987H33.75V39.9987H38.2312L40 38.2312V33.75H42.5V38.75C42.5 39.0825 42.3688 39.4 42.135 39.635L39.635 42.135C39.4 42.3675 39.0813 42.4987 38.75 42.4987Z" fill="#EFBE9A"/>
<path d="M50 38.7487H46.25V36.2487H49.4825L51.25 34.4812V31.25H53.75L53.7513 35C53.7513 35.3312 53.62 35.65 53.385 35.885L50.885 38.385C50.65 38.6175 50.3313 38.7487 50 38.7487Z" fill="#EFBE9A"/>
<path d="M35 53.7487H31.25V51.2487H34.4825L36.25 49.4812V46.25H38.75L38.7513 50C38.7513 50.3312 38.62 50.65 38.385 50.885L35.885 53.385C35.65 53.6175 35.3313 53.7487 35 53.7487Z" fill="#EFBE9A"/>
<path d="M46.25 49.9987H41.25V47.4987H45.7312L47.5 45.7312V41.25H50V46.25C50 46.5825 49.8688 46.9 49.635 47.135L47.135 49.635C46.9 49.8675 46.5813 49.9987 46.25 49.9987Z" fill="#EFBE9A"/>
<path d="M59.1663 23.8887C58.7775 22.9812 58.3263 22.115 57.8238 21.2862L47.3838 17.3712C48.4775 18.58 49.4938 19.8475 50.4163 21.1787L59.4588 24.57L59.1663 23.8887Z" fill="#C66B60"/>
<path d="M54.3299 28.3637L62.1887 31.6287C61.9249 30.6062 61.6124 29.5937 61.1912 28.61L61.1374 28.4837L52.7324 24.9912C53.3137 26.0912 53.8587 27.2112 54.3299 28.3637Z" fill="#C66B60"/>
<path d="M56.3625 35.1499L62.8338 37.8386C62.8775 36.9324 62.8763 36.0236 62.8025 35.1186L55.6238 32.1361C55.9113 33.1274 56.1563 34.1324 56.3625 35.1499Z" fill="#C66B60"/>
<path d="M30.1489 60.6174L28.9351 54.5474C27.9876 54.1774 27.0551 53.7712 26.1414 53.3262L27.3389 59.3124L28.0751 59.7387C28.7389 60.1249 29.4364 60.4112 30.1489 60.6174Z" fill="#C66B60"/>
<path d="M15.5725 45.6699L18.395 54.1362L21.66 56.0262L19.33 49.0362C18.1725 48.1237 17.0475 47.1662 15.9975 46.1149C15.8513 45.9699 15.715 45.8174 15.5725 45.6699Z" fill="#C66B60"/>
<path d="M78.1425 60.1774C73.8375 57.5949 68.7675 56.7724 63.8638 57.8599L61.0463 58.4862L59.9038 50.4861L61.7925 46.7074C64.7063 40.8812 64.905 34.1049 62.34 28.1161L60.3163 23.3937C56.9188 15.4724 49.2663 10.2937 40.6938 10.0249C36.11 7.03615 30.95 5.03115 25.4325 4.1824L6.72377 1.30365C5.23752 1.0774 3.70877 1.5749 2.64127 2.64115C1.57502 3.70865 1.07502 5.2349 1.30377 6.72365L4.18252 25.4311C5.02877 30.9349 7.02501 36.0799 10 40.6549V44.6362C10 48.3886 12.0175 51.8886 15.265 53.7699L27.4463 60.8224C29.1213 61.7924 30.9513 62.2611 32.7575 62.2611C35.7625 62.2611 38.6963 60.9549 40.7663 58.5161L58.4863 61.0474L57.86 63.8649C56.7713 68.7674 57.5938 73.8386 60.1775 78.1436C60.4038 78.5199 60.8113 78.7499 61.2488 78.7499C61.275 78.7499 61.3 78.7486 61.325 78.7474C61.7913 78.7187 62.2025 78.4336 62.3913 78.0074L67.1963 67.1974L78.0075 62.3924C78.4338 62.2037 78.7188 61.7924 78.7475 61.3261C78.7763 60.8599 78.5413 60.4161 78.1425 60.1774ZM37.4463 55.5149C29.71 54.4099 22.4063 50.7574 16.88 45.2312C12.4038 40.7549 9.25626 35.2962 7.59001 29.2799C9.17501 29.7436 10.815 29.9986 12.5 29.9986C22.1488 29.9986 30 22.1487 30 12.4987C30 10.8149 29.745 9.1749 29.28 7.5899C35.2963 9.25615 40.755 12.4037 45.2313 16.8799C50.7575 22.4062 54.41 29.7099 55.515 37.4461L58.5263 58.5261L37.4463 55.5149ZM27.01 57.6786L21.0613 54.2349L20.0313 51.1449C22.0425 52.5749 24.195 53.7899 26.4375 54.8174L27.01 57.6786ZM58.0175 24.3799L59.4825 27.7974L54.4975 25.7261C53.8663 24.4186 53.1625 23.1486 52.39 21.9186L57.8163 23.9536C57.8813 24.0961 57.955 24.2337 58.0175 24.3799ZM55.8913 29.0124L60.745 31.0287C61.105 32.1887 61.3338 33.3736 61.4725 34.5649L57.075 32.7374C56.7413 31.4762 56.3488 30.2336 55.8913 29.0124ZM59.5563 45.5899L59.2813 46.1386L57.9888 37.0924C57.9225 36.6311 57.8175 36.1774 57.735 35.7199L61.6188 37.3336C61.545 40.1686 60.8588 42.9862 59.5563 45.5899ZM55.8263 20.5374L49.7913 18.2737C48.9125 17.1762 47.9963 16.1087 47 15.1124C46.3038 14.4162 45.5813 13.7537 44.8425 13.1174C49.25 14.2387 53.14 16.8549 55.8263 20.5374ZM4.40877 4.40865C4.83377 3.9849 5.41252 3.7499 6.00502 3.7499C6.11752 3.7499 6.23126 3.75865 6.34376 3.77615L25.0513 6.6549C25.5075 6.7249 25.9525 6.83115 26.405 6.9174C27.1188 8.6899 27.5 10.5599 27.5 12.4987C27.5 20.7699 20.7713 27.4986 12.5 27.4986C10.5613 27.4986 8.69001 27.1174 6.91751 26.4049C6.83126 25.9537 6.72501 25.5086 6.65501 25.0512L5.37252 16.7162C8.41877 18.8424 12.0288 19.9987 15.8213 19.9987H18.7488V17.4987H15.8213C11.6713 17.4987 7.77127 15.9049 4.80252 13.0187L3.77502 6.34365C3.66752 5.6374 3.90377 4.9149 4.40877 4.40865ZM12.5 44.6349V44.0787C13.3238 45.0849 14.1813 46.0674 15.1125 46.9986C15.5313 47.4174 15.98 47.8012 16.4163 48.1999L17.7975 52.3449L16.5188 51.6036C14.0388 50.1699 12.5 47.4999 12.5 44.6349ZM29.8638 59.1999L29.2163 55.9649C31.7625 56.9024 34.3975 57.6049 37.0925 57.9899L37.6163 58.0649C35.4113 59.7674 32.4963 60.2174 29.8638 59.1999ZM65.7413 65.1061C65.4575 65.2324 65.2325 65.4574 65.1063 65.7411L61.1763 74.5836C59.8513 71.3786 59.5363 67.8436 60.3 64.4049L61.0463 61.0462L64.405 60.2999C67.8463 59.5374 71.3775 59.8524 74.5838 61.1762L65.7413 65.1061Z" fill="#1A1A1A"/>
<path d="M15 12.4985C16.3788 12.4985 17.5 11.3773 17.5 9.99853C17.5 8.61978 16.3788 7.49854 15 7.49854C13.6212 7.49854 12.5 8.61978 12.5 9.99853C12.5 11.3773 13.62 12.4985 15 12.4985Z" fill="#1A1A1A"/>
<path d="M35.8838 23.3835L38.3838 20.8835C38.6188 20.6485 38.7488 20.331 38.7488 19.9985V14.9985H36.2488V19.4798L34.4812 21.2473H30V23.7473H35C35.3313 23.7485 35.6488 23.6173 35.8838 23.3835Z" fill="#1A1A1A"/>
<path d="M23.7488 34.9985V29.9985H21.2488V34.4798L19.4812 36.2473H15V38.7473H20C20.3325 38.7473 20.65 38.616 20.885 38.3823L23.385 35.8823C23.6175 35.6485 23.7488 35.331 23.7488 34.9985Z" fill="#1A1A1A"/>
<path d="M34.6338 32.1335C34.8688 31.8985 34.9988 31.581 34.9988 31.2485V26.2485H32.4988V30.7298L30.7312 32.4973H26.25V34.9973H31.25C31.5825 34.9973 31.9 34.866 32.135 34.6323L34.6338 32.1335Z" fill="#1A1A1A"/>
<path d="M37.5 31.2485H42.5C42.8325 31.2485 43.15 31.1173 43.385 30.8835L45.885 28.3835C46.12 28.1485 46.25 27.831 46.25 27.4985V22.4985H43.75V26.9798L41.9825 28.7473H37.5V31.2485Z" fill="#1A1A1A"/>
<path d="M28.7488 41.981L26.9812 43.7485H22.5V46.2485H27.5C27.8325 46.2485 28.15 46.1173 28.385 45.8835L30.885 43.3835C31.12 43.1485 31.25 42.831 31.25 42.4985V37.4985H28.75V41.981H28.7488Z" fill="#1A1A1A"/>
<path d="M42.4987 38.7485V33.7485H39.9987V38.2298L38.2312 39.9973H33.75V42.4973H38.75C39.0825 42.4973 39.4 42.366 39.635 42.1323L42.135 39.6323C42.3675 39.3985 42.4987 39.081 42.4987 38.7485Z" fill="#1A1A1A"/>
<path d="M51.2488 34.481L49.4812 36.2485H46.25V38.7485H50C50.3325 38.7485 50.65 38.6173 50.885 38.3835L53.385 35.8835C53.62 35.6485 53.75 35.331 53.75 34.9985V31.2485H51.25V34.481H51.2488Z" fill="#1A1A1A"/>
<path d="M36.2488 49.4812L34.4812 51.2487H31.25V53.7487H35C35.3325 53.7487 35.65 53.6174 35.885 53.3837L38.385 50.8837C38.62 50.6487 38.75 50.3312 38.75 49.9987V46.2487H36.25V49.4812H36.2488Z" fill="#1A1A1A"/>
<path d="M47.4988 45.731L45.7312 47.4985H41.25V49.9985H46.25C46.5825 49.9985 46.9 49.8673 47.135 49.6335L49.635 47.1335C49.87 46.8985 50 46.581 50 46.2485V41.2485H47.5V45.731H47.4988Z" fill="#1A1A1A"/>
</svg>
