<svg width="80" height="80" viewBox="0 0 80 80" fill="none" xmlns="http://www.w3.org/2000/svg">
<g clip-path="url(#clip0_286_2448)">
<path d="M74.3938 12.887C73.991 11.6235 73.2726 10.6342 72.3785 9.92493C71.8255 9.48669 71.5124 8.81287 71.5124 8.1073V2.34375C71.5124 1.69678 70.9881 1.17188 70.3405 1.17188H67.9967C67.3498 1.17188 66.8249 1.69678 66.8249 2.34375V7.23206C66.8249 8.09753 66.3512 8.89832 65.584 9.29871C64.4793 9.87549 63.5241 10.8081 62.9027 12.1094C60.2831 17.5958 55.6341 28.9551 46.0851 38.4857C36.5545 48.0347 25.1952 52.6837 19.7088 55.3033C14.6831 57.7026 15.1269 65.0867 20.4864 66.7944C23.6169 67.7917 27.094 68.2697 30.7342 68.2037C41.3555 68.0121 52.5268 62.0551 61.0906 53.4912C69.6551 44.9274 75.6115 33.7561 75.8037 23.1348C75.8691 19.4946 75.3912 16.0175 74.3938 12.887Z" fill="#FFCF5D"/>
<path d="M69.4653 13.5974C69.6771 13.7653 69.8285 13.9984 69.9274 14.3103C70.7733 16.9659 71.1737 19.906 71.1169 23.0505C70.9576 31.842 65.9705 41.9824 57.7765 50.177C49.5819 58.3716 39.4409 63.3588 30.6494 63.5175C28.1653 63.5626 26.1688 65.5322 26.0535 67.9791C27.572 68.1573 29.1376 68.233 30.7343 68.2043C41.3556 68.0121 52.5269 62.0557 61.0907 53.4918C69.6551 44.9274 75.6116 33.7561 75.8038 23.1348C75.8691 19.4946 75.3912 16.0175 74.3939 12.887C73.9911 11.6235 73.2727 10.6342 72.3785 9.92493C71.8256 9.48669 71.5124 8.81287 71.5124 8.1073V2.34375C71.5124 1.69678 70.9882 1.17188 70.3406 1.17188H67.9968C67.3498 1.17188 66.8249 1.69678 66.8249 2.34375V8.1073C66.8249 10.2655 67.7875 12.2662 69.4653 13.5974Z" fill="#FFB545"/>
<path d="M14.9384 35.5109L10.9967 33.0152C10.0055 32.3871 8.75977 33.3222 9.10279 34.4367L10.2594 38.1934C11.1212 40.9937 12.9059 43.4278 15.3278 45.1081L19.2004 47.6563C19.2011 43.0933 19.0241 38.0982 14.9384 35.5109Z" fill="#28D05B"/>
<path d="M25.6829 45.9552C23.4106 45.8722 21.209 46.4636 19.2004 47.5842C17.1929 46.4642 14.9908 45.8716 12.7184 45.9552C7.96685 46.1578 4.54949 48.706 2.72698 51.9867C0.897761 55.3216 0.663996 59.3896 2.12274 63.8782C4.35357 70.7226 10.274 76.8542 15.8984 77.1753C16.4507 77.2131 16.9909 77.2015 17.5164 77.146C18.6285 77.0288 19.7729 77.0288 20.8849 77.146C21.4105 77.2015 21.9506 77.2131 22.503 77.1753C28.1268 76.8542 34.0478 70.7226 36.2786 63.8782C37.7374 59.3896 37.503 55.3216 35.6744 51.9867C33.8519 48.706 30.4345 46.1578 25.6829 45.9552Z" fill="#FF5368"/>
<path d="M35.6743 51.9867C34.7826 50.3809 33.5076 48.9514 31.8816 47.8864C32.0519 48.1433 32.2124 48.4058 32.3613 48.6737C34.1906 52.0087 34.4249 56.0761 32.9656 60.5652C31.4678 65.1611 28.3062 69.4354 24.688 71.8451C22.6897 73.1757 20.3319 73.8623 17.9308 73.8623H8.7041C10.9386 75.7892 13.4465 77.0355 15.8983 77.1753C16.4507 77.2131 16.9908 77.2016 17.517 77.146C18.637 77.027 19.7667 77.0282 20.8867 77.146C21.4116 77.2016 21.9512 77.2125 22.5035 77.1753C28.1273 76.8543 34.0483 70.7227 36.2792 63.8782C37.7379 59.3897 37.5035 55.3217 35.6743 51.9867Z" fill="#D9435B"/>
<path d="M67.8676 48.2031C67.375 46.1426 65.522 44.6094 63.3101 44.6094C61.0975 44.6094 59.2451 46.1426 58.752 48.2031C52.3463 50.1538 47.6851 56.1084 47.6851 63.1519C47.6851 71.7816 54.6803 78.7769 63.3101 78.7769C71.9392 78.7769 78.9351 71.7816 78.9351 63.1519C78.9351 56.1084 74.2738 50.1538 67.8676 48.2031Z" fill="#FF983B"/>
<path d="M72.577 50.5719C74.4905 53.1647 75.6215 56.3696 75.6215 59.8395C75.6215 68.4686 68.6262 75.4639 59.9965 75.4639C56.5272 75.4639 53.3223 74.3329 50.7295 72.4194C53.575 76.2756 58.1501 78.7769 63.3101 78.7769C71.9392 78.7769 78.9351 71.7816 78.9351 63.1519C78.9351 57.9926 76.4332 53.4174 72.577 50.5719Z" fill="#FF7E40"/>
<path d="M72.2358 48.7672L71.0792 45.0105C70.2174 42.2102 68.4334 39.7755 66.0109 38.0958L64.4819 37.0893C63.4761 36.4277 62.1382 37.1491 62.1382 38.3527V40.0178C62.1382 43.1513 63.6366 45.9431 66.4003 47.693L70.3419 50.1893C71.3331 50.8161 72.5795 49.8817 72.2358 48.7672Z" fill="#28D05B"/>
<path d="M52.5038 19.7382C52.2401 19.1529 51.5339 18.91 50.9413 19.1553L50.2845 19.4275L50.7875 18.9246C51.241 18.4705 51.2873 17.7253 50.8473 17.2583C50.392 16.7756 49.6309 16.7664 49.1645 17.2327L48.6274 17.7698L48.918 17.0679C49.1658 16.4698 48.8819 15.7843 48.2838 15.5365C47.6857 15.2881 47.0002 15.5732 46.7524 16.1713L46.1164 17.7076C45.9651 18.0726 46.0127 18.4595 46.1976 18.7635C46.5107 19.2798 46.4607 19.936 46.0341 20.3632C45.5806 20.8167 45.5348 21.5619 45.9748 22.0289C46.4308 22.5123 47.1913 22.5202 47.657 22.0545L47.6796 22.0319C48.1123 21.5992 48.7751 21.5522 49.3019 21.8634C49.6052 22.0429 49.9879 22.0868 50.3474 21.9379L51.8837 21.3019C52.4928 21.0498 52.776 20.3437 52.5038 19.7382Z" fill="#28D05B"/>
<path d="M49.253 20.459C48.3973 20.2295 47.5068 20.5017 46.9215 21.1365L43.0763 19.9365L40.2314 22.923L39.0235 27.428C39.0101 27.4243 38.9967 27.4194 38.9826 27.4158C37.7326 27.0795 36.4472 27.821 36.1116 29.071C35.7759 30.321 36.5168 31.607 37.7668 31.9427C39.0174 32.2784 40.3028 31.5369 40.6385 30.2869C40.735 29.9268 40.7502 29.5569 40.6721 29.1937C40.9114 29.917 41.5046 30.5176 42.2962 30.73C43.5469 31.0651 44.8316 30.3229 45.1667 29.0729C45.2699 28.689 45.2741 28.2861 45.1783 27.901C45.2845 28.2696 45.4829 28.6169 45.7734 28.9075C46.6883 29.823 48.1727 29.823 49.0876 28.9075C50.0031 27.9919 50.0031 26.5082 49.0876 25.5933C48.7989 25.3046 48.4455 25.1013 48.0665 24.9945C49.3086 25.3119 50.5775 24.5709 50.9101 23.3295C51.2452 22.0795 50.5036 20.7941 49.253 20.459Z" fill="#D9435B"/>
<path d="M45.9382 17.1466C44.1951 16.6803 42.6039 18.2807 43.0677 20.0165C42.7968 19.0003 41.8727 18.2801 40.804 18.2801C40.2046 18.2801 39.6046 18.5089 39.1469 18.9667C38.2313 19.8822 38.2313 21.366 39.1469 22.2809C39.463 22.5977 39.8457 22.8052 40.251 22.9029C38.9747 22.5287 37.6637 23.2868 37.3268 24.5465C36.9923 25.7971 37.7345 27.0819 38.9851 27.4164C40.2357 27.7509 41.5205 27.0081 41.855 25.7581C41.9612 25.3607 41.9612 24.9433 41.855 24.5465C42.1199 25.5182 43.0024 26.2824 44.1188 26.2824C44.1224 26.2824 44.1261 26.2818 44.1298 26.2818C46.1909 26.2726 47.2529 23.758 45.7759 22.2815C45.4719 21.977 45.1124 21.7786 44.7358 21.6767C45.9834 22.005 47.2627 21.2635 47.5966 20.0159C47.931 18.7659 47.1882 17.4811 45.9382 17.1466Z" fill="#FF5368"/>
<path d="M46.1226 4.32312C45.8748 3.72559 45.1893 3.44177 44.5912 3.68897L43.8887 3.9801L44.4264 3.44238C44.8842 2.98462 44.8842 2.24304 44.4264 1.78528C43.9686 1.32751 43.2271 1.32751 42.7693 1.78528L42.2316 2.323L42.5227 1.62048C42.7705 1.02295 42.4867 0.336914 41.8886 0.0897219C41.291 -0.158081 40.605 0.125733 40.3572 0.723877L39.7212 2.26013L43.9522 6.49048L45.4884 5.85449C46.0866 5.60669 46.3704 4.92126 46.1226 4.32312Z" fill="#28D05B"/>
<path d="M33.8824 3.49056C36.3232 1.04976 39.9487 1.38118 42.3895 3.82198C44.8303 6.26278 45.1617 9.88888 42.7209 12.3297C40.2801 14.7705 33.7817 17.3114 31.3409 14.8706C28.9001 12.4298 31.4416 5.93135 33.8824 3.49056Z" fill="#FF5368"/>
<path d="M42.3894 3.82202C41.8035 3.23608 41.1486 2.77344 40.4589 2.43958C41.5154 4.6228 41.2627 7.16187 39.4078 9.01672C37.553 10.8716 33.3562 12.7814 30.3765 12.522C30.4589 13.4637 30.7549 14.2847 31.3408 14.8706C33.7816 17.3114 40.28 14.7705 42.7208 12.3297C45.1616 9.88892 44.8302 6.26282 42.3894 3.82202Z" fill="#D9435B"/>
<path d="M30 24.024C30 28.3392 26.5021 31.8365 22.1875 31.8365C17.8729 31.8365 14.375 28.3392 14.375 24.024C14.375 19.7095 17.8729 16.2115 22.1875 16.2115C26.5021 16.2115 30 19.7095 30 24.024Z" fill="#5C87BD"/>
<path d="M25.8008 17.0978C26.366 18.1787 26.687 19.4073 26.687 20.7111C26.687 25.0262 23.1891 28.5236 18.8745 28.5236C17.5702 28.5236 16.3422 28.2025 15.2612 27.6373C16.5656 30.1324 19.1766 31.8365 22.1875 31.8365C26.5021 31.8365 30 28.3392 30 24.024C30 21.0132 28.2959 18.4021 25.8008 17.0978Z" fill="#456EA2"/>
<path d="M73.2958 49.751C73.3996 49.3347 73.3916 48.8885 73.258 48.4534L72.1026 44.6948C71.1687 41.6559 69.2107 38.9789 66.5893 37.1564C66.5813 37.1509 66.5734 37.146 66.5655 37.1405L65.0384 36.1334C63.258 34.9597 60.8837 36.2421 60.8837 38.3771V40.0433C60.8837 41.3318 61.1126 42.5665 61.5459 43.7091C59.7942 44.2303 58.3703 45.5511 57.7306 47.309C54.605 48.3972 51.8108 50.4346 49.8113 53.0975C47.6916 55.9204 46.538 59.2657 46.4568 62.7942C43.1322 64.4885 39.8076 65.6915 36.5386 66.3837C39.1485 60.415 39.2046 53.5938 34.7552 48.8477C36.6533 47.6636 38.4624 46.427 40.1458 45.1575C42.5646 43.3344 44.8192 41.377 46.8493 39.3396C54.627 31.5576 59.1015 22.9108 62.9583 14.5831C63.8836 12.5848 64.312 11.2512 66.0375 10.3448C67.1892 9.73938 67.9052 8.5498 67.9052 7.23633V2.34558H70.2459V8.11218C70.2459 9.19067 70.7238 10.1886 71.5539 10.8496C72.3168 11.4594 72.8649 12.2675 73.1798 13.2513C75.7708 21.4081 74.4988 30.0171 70.8471 37.7545C70.4827 38.5217 71.0381 39.4275 71.9036 39.4275C72.354 39.4275 72.7697 39.1644 72.9613 38.7579L72.9632 38.7567C74.1771 36.1829 75.1244 33.5828 75.7763 31.0266C77.4047 24.6533 77.1843 18.1299 75.4094 12.5397C74.9602 11.12 74.1301 9.90051 73.0083 9.01245C72.744 8.80432 72.5866 8.4668 72.5866 8.11218V2.34558C72.5866 1.05286 71.5368 0.000610352 70.2459 0.000610352H67.9052C66.6149 0.00183106 65.5657 1.05286 65.5645 2.34558V7.23633C65.5645 7.66907 65.324 8.07251 64.9541 8.26477C62.5133 9.53857 61.8499 11.4069 60.8361 13.5919C57.7697 20.2161 53.3208 29.5551 45.1952 37.6807C41.6851 41.203 37.6598 44.3323 32.9107 47.2314C30.877 45.7745 28.4063 44.9286 25.6884 44.8126C24.1662 44.7565 22.6641 44.9701 21.1968 45.448C23.3831 41.1267 26.6216 38.1378 30.8605 36.5411C32.1435 37.8278 33.673 36.0425 32.6177 34.9854L31.9939 34.3597C31.6802 34.046 31.2169 33.9362 30.7958 34.0765C26.303 35.5774 22.6769 38.4943 20.1104 42.6245C19.7063 39.5508 18.5967 36.4813 15.5407 34.5428L11.6045 32.0453C10.7305 31.4911 9.63492 31.5393 8.81277 32.1692C7.99917 32.7917 7.66775 33.8257 7.96805 34.8035L9.12344 38.5626C9.85586 40.946 11.2206 43.1049 13.0395 44.8053C8.46182 44.8322 4.0972 47.1204 1.69302 51.4563C-0.299777 55.0964 -0.538424 59.5312 1.00271 64.2822C2.15994 67.8387 4.25467 71.2384 6.90176 73.8544C9.69351 76.6138 12.8564 78.2263 15.794 78.3948C16.4037 78.4363 17.0165 78.4247 17.6122 78.3618C18.6468 78.252 19.6966 78.252 20.7305 78.3612C21.0949 78.4003 21.4635 78.4192 21.831 78.4192C22.0672 78.4192 22.3034 78.4113 22.5365 78.3954C25.5022 78.2257 28.6779 76.5997 31.477 73.8159C32.8942 72.4066 34.1503 70.7733 35.1891 69.0161C38.944 68.4229 42.7678 67.1924 46.5862 65.3473C47.6452 73.6011 54.7027 80 63.2238 80C72.4743 80 79.9993 72.4603 79.9993 63.1927C79.9999 57.8693 77.5127 52.9218 73.2958 49.751ZM11.3604 37.8723L10.2056 34.1132C10.1964 34.0845 10.1909 34.0656 10.2343 34.032C10.3283 33.9606 10.0408 33.8287 14.2888 36.524V36.5247C17.188 38.3636 17.8387 41.6205 17.9705 45.4913L15.9594 44.165C13.7725 42.6416 12.1392 40.4071 11.3604 37.8723ZM35.1153 63.5553C33.0871 69.79 27.6012 75.7562 22.3907 76.0547C21.917 76.087 21.4416 76.0785 20.9771 76.0297C20.3783 75.9656 19.7753 75.9344 19.1723 75.9344C18.5686 75.9344 17.9656 75.9662 17.3662 76.0297C16.9036 76.0785 16.4281 76.087 15.9405 76.0541C13.5583 75.9174 10.9325 74.5435 8.54544 72.1851C6.16018 69.8273 4.27176 66.7627 3.22867 63.5565C1.89261 59.4366 2.07144 55.6427 3.74258 52.5897C5.56448 49.303 8.84634 47.323 12.7404 47.1564C14.5421 47.0905 16.3219 47.4908 18.0401 48.3447L18.5283 48.6664C18.9849 48.9673 19.616 48.9233 20.0243 48.4869C21.8285 47.5354 23.7054 47.0886 25.5962 47.1564C32.8814 47.4677 38.1554 54.184 35.1153 63.5553ZM63.2244 38.3771C63.2244 38.1055 63.5222 37.9419 63.7517 38.0927C65.1586 39.0204 66.9561 40.0201 68.5393 42.5165C68.5741 42.8406 68.7414 43.1458 69.0203 43.3466C69.3633 43.9972 69.6489 44.6783 69.8656 45.3845L71.021 49.1431C71.0296 49.1718 71.0357 49.1913 70.9917 49.2242C70.9343 49.2682 70.8996 49.2462 70.8739 49.2303L66.9372 46.7322C62.9308 44.1907 63.2244 40.495 63.2244 38.3771ZM63.2244 77.655C55.2654 77.655 48.7896 71.167 48.7896 63.1927C48.7896 57.3627 52.188 52.2369 57.4029 49.953C57.492 50.7959 57.7648 51.6144 58.214 52.359C58.4337 52.7234 58.8207 52.9248 59.2168 52.9248C59.4231 52.9248 59.6319 52.8699 59.8211 52.7557C60.3741 52.4207 60.5517 51.6992 60.2172 51.145C59.7387 50.3522 59.594 49.4153 59.8107 48.5071C60.0945 47.3169 60.9545 46.3965 62.0537 46.0095V49.2798C62.0537 49.9213 62.5481 50.4816 63.1884 50.5005C63.8512 50.5206 64.395 49.9884 64.395 49.3286V47.7563C65.1275 48.3887 65.6328 48.681 66.7321 49.3787C66.7235 49.9994 66.5532 50.6128 66.2316 51.145C65.8971 51.6992 66.0741 52.4207 66.6277 52.7557C66.8169 52.8699 67.0257 52.9248 67.232 52.9248C67.6281 52.9248 68.0144 52.7234 68.2348 52.359C68.5369 51.8591 68.7597 51.3165 68.9 50.7538L69.6215 51.2115C70.0268 51.4691 70.4796 51.5961 70.9307 51.5961C71.1846 51.5961 71.4379 51.5552 71.6826 51.4746C75.4369 54.1962 77.6592 58.526 77.6592 63.1927C77.6592 71.167 71.184 77.655 63.2244 77.655Z" fill="#1A1A1A"/>
<path d="M22.1552 33.0298C27.1027 33.0298 31.1279 28.9972 31.1279 24.0399C31.1279 19.0826 27.1027 15.0494 22.1552 15.0494C17.207 15.0494 13.1824 19.0826 13.1824 24.0399C13.1824 28.9972 17.207 33.0298 22.1552 33.0298ZM22.1552 17.395C25.8118 17.395 28.7872 20.376 28.7872 24.0399C28.7872 27.7039 25.8118 30.6848 22.1552 30.6848C18.4979 30.6848 15.5231 27.7039 15.5231 24.0399C15.5231 20.376 18.4979 17.395 22.1552 17.395Z" fill="#1A1A1A"/>
<path d="M19.8036 23.3057C20.0318 23.5346 20.3315 23.6487 20.6312 23.6487C20.9303 23.6487 21.23 23.5346 21.4588 23.3057L21.8012 22.9621L22.1443 23.3057C22.3725 23.5346 22.6722 23.6487 22.9719 23.6487C23.2716 23.6487 23.5706 23.5346 23.7995 23.3057C24.2567 22.8474 24.2567 22.1052 23.7995 21.6474L23.4565 21.3038L23.7995 20.9601C24.2567 20.5024 24.2567 19.7596 23.7995 19.3018C23.3424 18.8441 22.6014 18.8441 22.1443 19.3018L21.8012 19.6454L21.4588 19.3018C21.0017 18.8441 20.2607 18.8441 19.8036 19.3018C19.3464 19.7596 19.3464 20.5024 19.8036 20.9601L20.146 21.3038L19.8036 21.6474C19.3464 22.1052 19.3464 22.8474 19.8036 23.3057Z" fill="#1A1A1A"/>
<path d="M43.4899 13.1665C45.4443 11.2079 45.9631 8.48511 45.0817 6.00098L45.426 5.85815C46.0229 5.61035 46.3067 4.92493 46.0589 4.32617C45.8117 3.72803 45.1269 3.44421 44.53 3.69202L43.9642 3.92639C43.9526 3.91113 43.9422 3.89587 43.9306 3.88062L44.3652 3.44482C44.8223 2.98706 44.8223 2.24426 44.3652 1.7865C43.908 1.32874 43.1671 1.32874 42.7099 1.7865L42.2741 2.22351C42.2589 2.21191 42.2442 2.20093 42.2289 2.18994L42.4639 1.6217C42.7111 1.02356 42.4279 0.337525 41.8304 0.0897219C41.2341 -0.158081 40.5486 0.125733 40.3015 0.723877L40.1599 1.06751C37.6599 0.171509 34.9615 0.705567 33.0071 2.66357C30.2746 5.40161 27.3895 12.6233 30.4693 15.7092C33.5674 18.8141 40.7897 15.8722 43.4899 13.1665ZM31.8633 9.50745C32.4279 7.5177 33.5528 5.43396 34.6624 4.32251C36.6473 2.33337 39.5342 2.68066 41.5032 4.65393C43.5815 6.73584 43.7206 9.61853 41.8347 11.5082C40.725 12.6202 38.645 13.7469 36.6595 14.3127C34.5757 14.906 32.8802 14.809 32.124 14.0509C31.3683 13.2941 31.2707 11.5955 31.8633 9.50745Z" fill="#1A1A1A"/>
<path d="M38.1866 9.63568C38.6438 9.17792 38.6438 8.43512 38.1866 7.97736C37.7295 7.51959 36.9885 7.51959 36.5313 7.97736C36.0742 8.43512 36.0742 9.17792 36.5313 9.63568C36.9885 10.0934 37.7295 10.0934 38.1866 9.63568Z" fill="#1A1A1A"/>
<path d="M34.8761 12.9523C35.3333 12.4946 35.3333 11.7518 34.8761 11.294C34.4189 10.8362 33.678 10.8362 33.2208 11.294C32.7643 11.7518 32.7643 12.4946 33.2208 12.9523C33.678 13.4107 34.4189 13.4107 34.8761 12.9523Z" fill="#1A1A1A"/>
<path d="M34.8761 9.63568C35.3333 9.17792 35.3333 8.43512 34.8761 7.97736C34.4189 7.51959 33.678 7.51959 33.2208 7.97736C32.7643 8.43512 32.7643 9.17792 33.2208 9.63568C33.678 10.0934 34.4189 10.0934 34.8761 9.63568Z" fill="#1A1A1A"/>
<path d="M38.1866 12.9523C38.6438 12.4946 38.6438 11.7518 38.1866 11.294C37.7295 10.8362 36.9885 10.8362 36.5313 11.294C36.0742 11.7518 36.0742 12.4946 36.5313 12.9523C36.9885 13.4107 37.7295 13.4107 38.1866 12.9523Z" fill="#1A1A1A"/>
<path d="M41.4966 9.63568C41.9537 9.17792 41.9537 8.43512 41.4966 7.97736C41.04 7.51959 40.2984 7.51959 39.8419 7.97736C39.3847 8.43512 39.3847 9.17792 39.8419 9.63568C40.2984 10.0934 41.04 10.0934 41.4966 9.63568Z" fill="#1A1A1A"/>
<path d="M38.1866 6.31903C38.6438 5.86127 38.6438 5.11847 38.1866 4.66071C37.7295 4.20294 36.9885 4.20294 36.5313 4.66071C36.0742 5.11908 36.0742 5.86127 36.5313 6.31903C36.9885 6.77679 37.7295 6.77679 38.1866 6.31903Z" fill="#1A1A1A"/>
<path d="M43.4644 16.3995C43.0066 16.6742 42.619 17.049 42.3297 17.4866C41.0468 16.8469 39.4074 17.0056 38.2654 18.15C37.1399 19.2773 36.9599 20.9167 37.6142 22.2229C36.9019 22.6892 36.3715 23.407 36.1438 24.259C35.9186 25.1038 36.0144 25.979 36.4051 26.7523C35.5927 27.2827 35.0318 28.1311 34.8627 29.0924C34.5417 30.9137 35.7001 32.6819 37.4988 33.1183C38.9948 33.4808 40.4682 32.8339 41.2641 31.626C42.2882 32.1436 43.5596 32.1564 44.6424 31.5057C45.1032 31.2286 45.4926 30.8502 45.7831 30.4071C47.0606 31.0486 48.7 30.9064 49.8487 29.7559C50.9674 28.6346 51.1542 26.9977 50.5005 25.6873C51.2506 25.1984 51.7945 24.433 52.0032 23.5187C52.1753 22.7649 52.0819 21.9989 51.7847 21.3257C52.3718 21.0999 52.6789 20.4468 52.4707 19.8474C52.2583 19.2352 51.5912 18.913 50.9802 19.1248L50.2906 19.3652L50.7526 18.9026C51.2097 18.4448 51.2097 17.702 50.7526 17.2443C50.2954 16.7865 49.5545 16.7865 49.0973 17.2443L48.6353 17.7069L48.8751 17.016C49.0875 16.4044 48.7653 15.7361 48.1543 15.5231C47.5592 15.3162 46.9104 15.6189 46.6822 16.2018C45.6818 15.7617 44.4861 15.7867 43.4644 16.3995ZM46.4008 19.726C46.3776 19.812 46.366 19.8987 46.3623 19.9841L45.9369 20.4108C44.8725 21.4771 46.4264 23.2367 47.6844 21.9763C48.0902 21.568 48.5285 21.4832 48.9557 21.6272C50.0397 21.9922 50.0067 23.6108 48.8422 23.8818C47.6886 24.1498 47.3029 25.5957 48.1665 26.4093C48.396 26.6254 48.5309 26.936 48.5358 27.2601C48.551 28.2996 47.251 28.8641 46.5058 28.0688C45.7025 27.2095 44.2536 27.5983 43.9881 28.7463C43.7812 29.6374 42.6477 29.9896 41.9886 29.2847C41.1835 28.4235 39.7382 28.8141 39.4696 29.967C39.3341 30.5487 38.7268 31.0034 38.0493 30.8386C37.0642 30.6 36.8091 29.2609 37.7021 28.703C38.1977 28.3936 38.6212 28.5791 38.7952 28.6053C40.2375 28.9166 41.6492 28.2623 42.4036 27.0508C42.508 27.1069 42.6166 27.1582 42.7283 27.2046C45.1923 28.2202 47.8601 26.1066 46.5406 24.7839C46.0834 24.3262 45.3424 24.3262 44.8853 24.7839C44.1693 25.5011 42.9889 25.0079 42.8943 24.093C42.8131 22.2125 40.495 22.5183 40.5469 23.9923C40.5585 24.9756 40.7813 25.5927 40.166 26.0968C39.8816 26.33 39.5032 26.3885 39.2523 26.3043C38.9759 26.3043 38.1708 25.7428 38.4052 24.8651C38.5169 24.4458 38.8495 24.1241 39.2725 24.0247C40.4212 23.7555 40.8124 22.3059 39.9494 21.499C39.718 21.283 39.5819 20.9723 39.5764 20.647C39.5587 19.6033 40.8759 19.0436 41.6053 19.8218C42.4085 20.6793 43.8526 20.2924 44.1211 19.1467C44.1925 18.8446 44.3909 18.5773 44.6656 18.4125C45.5469 17.8839 46.676 18.6957 46.4008 19.726Z" fill="#1A1A1A"/>
<path d="M57.1382 55.3906C57.1382 56.0382 56.6133 56.5625 55.9663 56.5625C55.3187 56.5625 54.7944 56.0382 54.7944 55.3906C54.7944 54.7437 55.3187 54.2188 55.9663 54.2188C56.6133 54.2188 57.1382 54.7437 57.1382 55.3906Z" fill="#1A1A1A"/>
<path d="M60.2632 59.7662C60.2632 60.4132 59.7383 60.9381 59.0913 60.9381C58.4443 60.9381 57.9194 60.4132 57.9194 59.7662C57.9194 59.1187 58.4443 58.5944 59.0913 58.5944C59.7383 58.5944 60.2632 59.1187 60.2632 59.7662Z" fill="#1A1A1A"/>
<path d="M54.0125 63.2037C54.0125 63.8507 53.4882 64.3756 52.8406 64.3756C52.1936 64.3756 51.6687 63.8507 51.6687 63.2037C51.6687 62.5568 52.1936 62.0319 52.8406 62.0319C53.4882 62.0319 54.0125 62.5568 54.0125 63.2037Z" fill="#1A1A1A"/>
</g>
<defs>
<clipPath id="clip0_286_2448">
<rect width="80" height="80" fill="white"/>
</clipPath>
</defs>
</svg>
