<svg width="144" height="435" viewBox="0 0 144 435" fill="none" xmlns="http://www.w3.org/2000/svg">
<path d="M22.2711 250.406C21.7818 247.542 21.2713 244.479 20.7395 241.245C15.7408 245.783 12.231 251.229 9.61462 258.546C12.8904 258.376 15.6344 258.206 18.5486 258.064C19.7185 255.625 20.9948 253.015 22.2711 250.406Z" fill="#F2F2F2"/>
<path d="M23.2283 346.156C22.7603 346.099 21.8457 345.645 21.0586 345.901C17.6552 346.922 14.2305 347.886 10.976 349.474C10.0401 349.928 8.99777 352.537 9.18921 353.814C9.40192 355.232 10.9547 357.189 11.997 357.302C16.2938 357.756 20.3141 355.998 23.6963 352.452C25.3767 350.694 25.1002 347.687 23.2283 346.156Z" fill="#F2F2F2"/>
<path d="M30.652 351.119C30.9924 350.949 32.0559 350.41 33.5662 349.644C31.8007 346.695 31.2902 343.093 28.5461 341.873C29.3332 345.305 29.9713 348.084 30.652 351.119Z" fill="#F2F2F2"/>
<path d="M17.5276 297.487C18.5274 297.714 20.5269 296.409 20.7396 295.303C21.0799 293.658 20.6758 290.453 19.8462 289.914C16.1024 287.503 12.1247 285.433 7.33862 288.354C9.91246 294.197 13.4648 296.523 17.5276 297.487Z" fill="#F2F2F2"/>
<path d="M17.1661 315.667C17.6979 309.172 15.3793 305.428 11.6993 302.989C8.2959 300.749 4.78613 299.331 1.78687 304.067C3.23332 312.065 9.01913 315.497 17.1661 315.667Z" fill="#F2F2F2"/>
<path d="M27.0784 336.796C27.2486 332.542 24.8662 331.861 23.0581 330.925C18.6762 328.657 13.018 329.337 9.55078 332.173C11.529 339.009 18.2508 340.88 27.0784 336.796Z" fill="#F2F2F2"/>
<path d="M9.93372 266.743C14.1454 271.451 18.5486 273.521 23.1858 274.627C24.143 274.854 25.7809 274.145 26.185 273.181C26.5467 272.302 25.9298 270.146 25.2278 269.182C21.9733 264.616 15.7408 263.51 9.93372 266.743Z" fill="#F2F2F2"/>
<path d="M24.3983 257.383C25.3555 263.084 29.9714 267.99 36.7357 270.571C37.6504 263.169 32.3963 257.553 24.3983 257.383Z" fill="#F2F2F2"/>
<path d="M37.7991 257.468C35.3742 249.102 32.3962 242.323 25.8233 237.615C25.3979 249.981 31.3326 253.526 37.7991 257.468Z" fill="#F2F2F2"/>
<path d="M25.483 367.881C27.9292 370.433 30.1627 369.582 32.141 368.108C34.1192 366.661 35.8422 364.648 37.6928 362.861C39.2456 361.386 39.3945 359.628 38.5224 357.387C37.5864 355.033 36.2463 354.976 34.5446 355.515C29.9288 356.962 26.9082 360.932 25.483 367.881Z" fill="#F2F2F2"/>
<path d="M45.5633 318.532C44.2019 331.039 47.3926 341.533 54.4547 349.9C55.3269 350.921 56.4968 351.46 58.1985 352.708C59.964 345.646 60.2618 339.009 60.1767 332.344C60.1129 326.274 59.6875 320.205 59.4961 314.136C59.2833 306.988 58.0496 300.295 55.2418 294.084C52.434 287.873 51.0939 281.633 53.1572 274.089C54.7525 268.303 54.6462 261.78 53.1572 255.455C52.8807 256.448 52.6041 257.44 52.3276 258.433C51.1577 262.772 50.4557 267.509 48.7115 271.423C44.4147 281.066 43.4149 291.191 45.2868 301.883C46.2653 307.471 46.1802 312.859 45.5633 318.532Z" fill="#F2F2F2"/>
<path d="M76.4705 265.041C75.2155 257.695 69.8977 251.541 64.4309 250.633C65.5796 257.355 70.5996 263.566 76.4705 265.041Z" fill="#F2F2F2"/>
<path d="M66.8772 275.96C71.8334 281.463 77.2576 278.116 86.1065 270.316C84.0006 266.232 82.6606 265.41 80.576 268.019C78.3212 270.827 76.0452 271.394 73.0672 271.536C71.0251 271.621 69.0681 274.287 66.8772 275.96Z" fill="#F2F2F2"/>
<path d="M48.7752 430.759C57.5816 426.76 66.1327 421.797 74.8114 417.316C84.2984 412.409 93.6153 407.077 103.889 405.092C117.099 402.568 126.692 392.187 133.499 377.326C141.221 360.45 143.688 341.817 143.986 322.19C144.305 301.599 139.157 283.051 133.903 264.389C132.861 260.702 131.032 257.412 129.585 253.952C123.246 238.806 116.567 223.917 110.675 208.459C103.953 190.847 101.401 171.646 100.72 152.048C100.039 132.393 100.082 112.681 99.1246 93.0267C98.5077 80.1504 96.6146 67.3025 92.0412 55.7309C86.0427 40.6424 77.0236 30.659 63.6652 29.2409C60.2405 28.8722 56.6244 23.8522 56.1351 18.3216C55.9012 15.5705 56.1139 12.706 56.3053 9.92652C56.5606 6.06931 55.8373 2.77937 53.1359 1.0493C50.3281 -0.76586 47.8819 1.13439 46.0738 3.8004C44.84 5.61555 44.053 8.11137 43.3936 10.4654C42.564 13.5285 42.1386 16.7901 41.3941 19.9099C40.7347 22.6043 39.3308 23.5686 37.2674 22.349C22.5477 13.7837 11.0398 21.4414 0.829583 35.3103C0.553056 35.7074 0.297799 36.1045 0.0212714 36.5016V51.7886C1.95697 46.3148 4.55207 41.238 7.87041 36.6434C17.2511 23.682 29.2694 21.4698 40.9048 30.3754C43.032 32.0204 45.1378 33.8355 47.4352 34.97C49.307 35.906 51.4342 36.1329 53.455 36.2747C58.475 36.6717 63.7503 34.1759 68.4938 37.3808C72.3652 39.9901 75.7686 43.8189 79.4486 46.9387C83.1923 50.1152 85.362 54.8233 87.1063 60.0419C90.7224 70.8761 92.7006 82.3626 93.2537 94.076C94.1045 112.54 94.296 131.06 94.7427 149.552C95.317 172.298 98.5077 194.278 106.293 214.699C110.76 226.384 115.397 237.984 120.545 249.158C125.65 260.191 129.692 271.706 133.01 283.902C139.157 306.563 139.391 329.281 135.201 352.367C131.84 370.887 123.204 382.686 109.271 387.366C103.145 389.436 96.9974 391.478 90.7862 393.18C77.8319 396.725 65.1755 401.235 53.1997 409.119C48.7114 412.069 43.6063 413.714 38.6288 414.962C32.5027 416.522 26.4403 415.614 20.7396 411.417C16.9107 408.58 12.8054 406.396 7.89168 403.305C5.16894 401.376 2.53129 399.249 0 396.867V406.368C1.02103 407.219 2.02078 408.041 3.06308 408.836C7.63642 412.296 12.6565 414.678 17.2724 418.082C24.0366 423.073 31.2264 424.094 38.7139 423.017C45.2655 422.081 51.4129 419.301 57.2838 415.472C66.0263 409.772 75.0667 405.375 84.6813 403.163C85.7236 402.936 86.7872 402.936 87.8508 402.823C73.6202 410.878 59.9853 420.407 44.9039 424.52C39.4371 425.995 33.6513 427.554 28.2271 426.675C18.1019 424.945 8.59363 421.031 0.0850855 413.799V422.846C7.55134 427.469 15.0601 431.752 23.3134 433.709C32.1198 435.779 40.5645 434.503 48.7752 430.759ZM44.3508 26.1495C45.4569 21.5265 46.4354 17.3573 47.4139 13.2165C47.9457 11.0043 48.3711 8.76369 49.0092 6.60819C49.6048 4.5945 50.6471 3.6302 52.7317 5.58716C51.2215 13.3016 49.9239 21.5265 54.2845 28.9289C50.2642 30.4888 50.2642 30.4888 44.3508 26.1495ZM113.44 394.258C113.525 394.683 113.61 395.108 113.695 395.534C109.207 397.179 104.74 398.824 100.252 400.469C100.146 399.93 100.039 399.419 99.9329 398.881C104.442 397.321 108.952 395.789 113.44 394.258Z" fill="#F2F2F2"/>
<path d="M12.0821 377.014C14.3794 379.453 17.0596 381.438 21.0161 378.715C19.3782 377.212 18.2083 376.078 16.9745 375.028C9.52957 368.562 3.61613 360.507 1.85061 348.368C1.38264 345.192 1.27628 341.845 1.40391 338.612C1.63789 332.798 1.40391 327.154 0.085083 321.651V357.756C2.63765 365.158 6.82811 371.455 12.0821 377.014Z" fill="#F2F2F2"/>
<path d="M41.7132 174.368C41.2877 176.496 40.8623 178.623 40.4156 180.75C38.2459 191.357 36.3953 202.05 32.2687 211.806C29.3332 218.726 25.2491 224.002 21.0374 229.334C16.5917 234.978 12.2736 240.82 8.04058 246.719C4.29681 251.938 2.42493 258.461 1.02102 265.382C0.723224 266.856 0.382882 268.331 0.085083 269.806V310.987C3.3396 317.114 8.33837 318.872 13.4222 320.404C18.7826 322.02 22.0797 317.766 20.9736 310.59C20.6332 308.35 19.91 306.223 19.3782 304.096C25.7384 298.792 26.7594 291.928 22.2498 285.802C18.5486 280.782 9.52957 280.498 5.722 285.348C4.29681 287.192 3.87139 289.319 5.16894 291.616C6.0198 293.091 6.97701 294.452 8.04058 296.126C5.53055 296.807 3.1907 297.459 0.212711 298.253C2.23349 289.518 4.19046 281.151 6.33887 271.876C8.93397 273.777 11.1249 275.677 13.486 277.067C16.0386 278.541 18.7188 280.045 21.4415 280.612C25.5256 281.463 29.7161 281.605 31.0775 274.174C32.2474 275.138 32.9493 275.705 33.9916 276.556C29.7799 282.399 29.2056 289.035 30.3117 296.353C30.6733 298.735 30.1628 301.458 29.6948 303.897C28.3122 311.356 26.7594 318.759 25.1215 327.04C24.0579 326.757 22.4413 326.104 20.8034 325.962C17.5063 325.65 14.1667 325.112 10.9122 325.565C8.466 325.906 6.27505 328.005 5.722 331.72C5.21148 335.095 6.59412 337.534 8.44473 339.576C9.3594 340.569 10.2741 341.561 11.4865 342.894C10.2528 344.483 9.2105 345.702 8.25329 347.007C6.61539 349.247 5.1264 351.715 6.14742 355.09C7.21099 358.579 9.16796 361.103 12.0396 361.273C14.4645 361.443 16.9107 360.734 19.3357 360.394C20.3354 360.252 21.3352 359.997 22.7816 359.713C22.2711 361.613 21.867 362.861 21.5904 364.137C20.2716 370.547 22.5902 374.66 27.6102 374.83C30.9073 374.943 33.864 373.61 36.3315 370.661C37.5014 369.271 38.5863 367.768 39.7987 366.208C40.6283 370.859 40.7772 371.143 36.0337 375.511C33.6726 377.666 30.652 378.545 27.589 380.162C33.6938 383.849 41.3941 381.495 44.3721 375.113C45.2442 373.242 45.6696 370.717 45.6696 368.505C45.6696 360.365 43.2872 353.502 38.8628 347.886C34.6936 342.639 31.6093 336.513 30.2053 328.94C29.1418 323.24 29.2056 317.823 31.4816 312.604C34.4171 305.854 35.3956 298.792 34.1405 290.964C33.1195 284.639 34.1405 279.024 39.1393 275.649C41.9046 273.777 42.564 270.118 41.3728 265.183C40.8198 262.886 40.4581 261.099 41.309 258.631C41.8408 257.043 41.3303 254.519 40.7985 252.647C38.2672 243.458 34.9063 237.927 27.7379 230.979C38.3735 214.898 43.4149 196.094 41.7132 174.368ZM7.33862 288.355C12.1247 285.433 16.1024 287.532 19.8462 289.915C20.6758 290.425 21.0799 293.658 20.7396 295.303C20.5269 296.381 18.5274 297.714 17.5276 297.487C13.4648 296.523 9.91246 294.197 7.33862 288.355ZM11.6993 302.989C15.3792 305.428 17.6978 309.172 17.166 315.667C8.99779 315.497 3.23325 312.065 1.78679 304.067C4.78606 299.331 8.29583 300.749 11.6993 302.989ZM9.55084 332.174C13.0181 329.309 18.6763 328.657 23.0582 330.926C24.8875 331.862 27.2486 332.542 27.0784 336.797C18.2508 340.881 11.5291 339.009 9.55084 332.174ZM23.6963 352.424C20.3142 355.941 16.2939 357.728 11.997 357.274C10.9335 357.161 9.40194 355.204 9.18923 353.785C8.99779 352.481 10.0401 349.9 10.976 349.446C14.2305 347.886 17.6765 346.922 21.0587 345.872C21.8457 345.646 22.7604 346.071 23.2283 346.128C25.1002 347.688 25.3767 350.694 23.6963 352.424ZM38.5224 357.416C39.3946 359.628 39.2457 361.386 37.6929 362.89C35.8635 364.648 34.1193 366.662 32.141 368.137C30.1415 369.611 27.9293 370.462 25.4831 367.91C26.9083 360.933 29.9501 356.99 34.5447 355.572C36.2464 355.005 37.5865 355.062 38.5224 357.416ZM33.5662 349.645C32.0772 350.41 30.9924 350.949 30.652 351.119C29.9714 348.113 29.3332 345.305 28.5462 341.902C31.2689 343.093 31.8007 346.695 33.5662 349.645ZM20.7396 241.246C21.2926 244.479 21.8032 247.542 22.2711 250.406C20.9948 253.016 19.7186 255.625 18.5274 258.064C15.6132 258.234 12.8692 258.376 9.59338 258.546C12.231 251.229 15.7408 245.784 20.7396 241.246ZM26.2063 273.209C25.8234 274.174 24.1643 274.883 23.2071 274.656C18.5486 273.55 14.1667 271.451 9.955 266.771C15.7621 263.51 21.9946 264.644 25.2704 269.21C25.9298 270.175 26.5679 272.33 26.2063 273.209ZM36.7357 270.572C29.9501 267.991 25.3555 263.084 24.3983 257.384C32.3963 257.554 37.6503 263.169 36.7357 270.572ZM37.7992 257.469C31.3327 253.498 25.3767 249.981 25.8234 237.615C32.3963 242.323 35.3956 249.102 37.7992 257.469Z" fill="#F2F2F2"/>
<path d="M40.6497 276.698C39.8626 282.427 38.5012 288.241 38.7565 293.942C39.2032 303.925 39.6074 313.795 39.5861 323.835C39.5435 337.505 44.521 349.077 53.689 356.423C58.9218 360.62 62.4315 358.635 63.6653 350.58C64.5374 344.879 64.9628 338.98 65.0479 333.166C65.133 325.934 64.665 318.673 64.4523 311.441C64.2396 304.294 62.942 297.544 60.0917 291.418C57.6667 286.227 56.8584 281.151 58.2623 274.826C59.5812 268.898 59.3472 262.403 59.8364 255.625C62.623 259.652 65.0905 263.283 67.8557 267.282C66.8773 268.444 65.835 269.494 64.9416 270.742C62.0699 274.797 62.5804 279.789 66.3455 282.398C70.6848 285.376 75.1305 285.121 79.5124 282.228C82.3203 280.356 85.1706 278.57 88.2337 276.584C89.4249 280.129 90.6799 283.221 91.4669 286.511C91.8286 288.042 91.786 290.482 91.0841 291.616C89.8078 293.743 88.2124 292.098 86.9149 290.935C86.1917 290.283 85.6811 289.149 84.9154 288.695C83.4689 287.844 81.9161 287.362 80.1293 287.759C81.6396 290.084 83.1286 292.439 84.6388 294.764C87.0212 298.451 89.7014 299.33 92.5731 297.373C95.4022 295.445 97.0613 290.793 95.9339 286.653C95.1682 283.845 93.6154 281.462 92.5731 278.768C91.8073 276.754 90.8501 274.571 90.765 272.415C90.4885 264.219 88.5528 261.297 82.3415 260.56C81.831 260.503 81.3205 260.418 80.7462 260.333C77.6618 254.065 73.2374 249.896 68.4939 246.265C64.112 242.919 62.8357 243.202 58.39 248.109C57.4328 245.046 56.6032 242.068 55.5396 239.203C54.7313 237.048 53.4337 234.807 51.4555 236.027C50.2643 236.764 49.3284 238.863 48.8179 240.622C48.3286 242.295 48.4988 244.309 48.5201 246.18C48.6264 255.823 46.9885 264.672 42.2237 272.245C41.4367 273.521 40.8624 275.138 40.6497 276.698ZM80.576 268.019C82.6606 265.41 84.0007 266.261 86.1066 270.316C77.2364 278.116 71.8122 281.462 66.8772 275.96C69.0682 274.287 71.0464 271.621 73.0672 271.536C76.0452 271.394 78.3212 270.827 80.576 268.019ZM76.4706 265.041C70.5997 263.566 65.5797 257.355 64.431 250.633C69.9191 251.541 75.2156 257.695 76.4706 265.041ZM48.7115 271.422C50.4558 267.508 51.1577 262.8 52.3276 258.433C52.6042 257.44 52.8807 256.447 53.1572 255.455C54.6675 261.808 54.7526 268.303 53.1572 274.088C51.0939 281.633 52.434 287.872 55.2418 294.084C58.0496 300.266 59.3046 306.96 59.4961 314.135C59.6663 320.205 60.0917 326.274 60.1768 332.344C60.2619 339.009 59.9641 345.645 58.1985 352.707C56.4968 351.459 55.3056 350.921 54.4548 349.9C47.3927 341.533 44.202 331.011 45.5633 318.531C46.1802 312.859 46.2866 307.47 45.3081 301.855C43.4149 291.191 44.4147 281.065 48.7115 271.422Z" fill="#F2F2F2"/>
<path d="M90.7649 362.096C95.5935 365.499 99.8903 365.272 103.464 360.876C107.442 355.97 110.271 349.872 110.59 342.583C110.866 336.343 110.398 329.99 109.952 323.722C109.356 314.873 107.952 306.081 107.846 297.261C107.612 279.166 103.124 263.85 93.126 251.513C88.7441 246.096 84.3835 240.679 79.9378 235.347C75.8111 230.412 72.8332 224.427 70.1317 218.074C68.4087 214.075 66.239 210.388 64.1332 206.673C62.6016 203.978 60.8786 201.454 58.9217 198.363C57.773 202.532 58.7728 205.34 60.7085 207.552C64.197 211.494 65.7923 216.798 67.728 222.102C69.9402 228.114 72.8332 233.872 76.0877 239.005C80.7248 246.323 85.9363 252.988 90.9776 259.851C96.9762 268.019 100.507 277.719 101.486 289.064C102.379 299.303 103.294 309.513 104.294 320.631C102.805 320.602 101.613 320.574 100.507 320.574C100.252 319.922 99.9329 319.496 99.9967 319.184C101.613 309.74 98.5715 304.776 91.2754 305.457C88.6803 305.684 86.149 306.818 84.341 307.329C81.1503 303.642 78.1297 300.607 75.5559 296.977C73.45 293.999 71.8972 290.283 69.9402 286.596C69.4723 291.531 70.3869 294.538 73.3437 298.991C74.8539 301.26 76.4706 303.443 77.7681 305.882C79.7463 309.626 80.7248 313.824 80.2994 318.504C79.5336 327.324 81.0439 335.265 85.362 342.129C86.6808 344.228 87.1488 346.355 86.7872 349.219C85.8725 356.48 86.8935 359.373 90.7649 362.096ZM102.549 327.835C106.484 329.82 106.633 330.614 105.485 336.854C100.316 337.024 95.2957 336.797 92.1901 328.884C95.6573 324.119 99.1884 326.161 102.549 327.835ZM84.426 319.751C84.426 317.057 84.4473 314.845 84.4473 312.094C88.659 311.612 92.5517 309.173 96.5933 313.937C93.7854 321.482 89.0845 319.581 84.426 319.751ZM85.7449 328.061C85.5534 327.636 85.83 326.814 85.8938 325.906C86.9999 325.963 87.9784 325.991 88.9568 326.048C89.0845 336.145 92.9559 340.087 105.527 343.15C105.719 348.709 103.485 352.906 100.805 356.593C99.082 358.976 96.8698 359.118 94.4874 357.558C92.0199 355.913 91.9561 353.53 92.5942 350.524C93.6153 345.617 92.6368 341.42 90.2544 337.478C88.5314 334.585 87.1701 331.266 85.7449 328.061Z" fill="#F2F2F2"/>
<path d="M74.4498 363.598C67.1963 364.506 61.1977 369.015 56.6882 376.787C56.433 377.212 56.518 377.978 56.3691 379.141C61.1339 376.503 65.92 374.801 69.8977 371.398C74.5987 367.399 78.9806 372.135 84.6388 371.114C81.4694 366.037 78.4063 363.116 74.4498 363.598Z" fill="#F2F2F2"/>
</svg>
