<svg width="80" height="80" viewBox="0 0 80 80" fill="none" xmlns="http://www.w3.org/2000/svg">
<g clip-path="url(#clip0_27_3363)">
<path d="M53.2586 62.3116C48.3825 62.1918 45.2856 59.8367 43.5027 57.6884C41.9061 55.765 41.2048 53.1195 40.393 50.0557C39.2638 45.7938 37.8582 40.4892 33.4502 35.6054C29.0801 30.7638 23.6761 28.6552 18.908 26.7949C11.8688 24.049 9.01238 22.6853 9.01238 16.4329C9.01238 15.7491 9.01482 14.2674 10.2746 12.5612C4.68499 16.258 1.10589 20.9173 1.19195 26.0384C1.41595 39.3646 15.2044 36.9099 23.4307 46.0243C32.1301 55.6629 25.3033 65.0385 42.9272 71.894C52.1862 75.4954 67.6977 70.7314 75.4748 51.4891C75.2831 51.7325 63.5345 62.5642 53.2586 62.3116Z" fill="#EA3942"/>
<path d="M78.8092 37.5354C78.8092 53.6534 65.2728 70.2379 47.8027 66.7196C29.2175 62.9764 36.4972 51.2108 27.7985 41.5723C19.5715 32.4578 4.89746 35.9393 4.89746 21.5876C4.89746 8.58425 27.3621 5.11189 47.8027 8.35186C64.7168 11.0329 78.8092 21.4175 78.8092 37.5354Z" fill="#F3E8D7"/>
<path d="M67.5325 16.2C70.5208 20.3609 72.2609 25.3132 72.2609 30.9743C72.2609 47.0916 58.7245 63.6761 41.2538 60.1579C38.6158 59.6271 36.4998 58.9336 34.7847 58.1086C36.5242 61.9405 39.7126 65.0906 47.8029 66.7198C65.2729 70.238 78.8093 53.6535 78.8093 37.5356C78.8093 28.511 74.3904 21.2843 67.5325 16.2Z" fill="#E5D6C1"/>
<path d="M52.5067 61.4286C49.8963 61.5418 47.2827 61.1045 44.8834 60.0306C43.2593 59.3035 41.723 58.2798 40.6824 56.8335C39.5508 55.2612 39.0863 53.3189 38.6017 51.4421C37.5708 47.4481 36.3074 43.4327 33.9526 40.0484C30.4755 35.0508 24.9188 31.8769 19.2108 29.775C17.2009 29.035 15.1148 28.3886 13.374 27.1386C11.6333 25.8892 10.2643 23.8717 10.4389 21.7332C10.6635 18.9855 13.2398 17.0597 15.752 15.9351C22.6727 12.8376 30.6806 12.3857 38.1494 12.9495C45.7642 13.5238 53.9014 14.9212 60.6629 18.6326C67.3401 22.2976 72.2955 28.6277 72.962 36.3326C73.6176 43.9121 70.1013 52.0915 64.2279 56.9209C60.943 59.6221 56.7291 61.2458 52.5067 61.4286Z" fill="#FC4E51"/>
<path d="M72.9619 36.3327C72.3723 29.5176 68.4258 23.7795 62.9009 20.0081C64.7856 22.853 66.0094 26.1174 66.3176 29.6754C66.9731 37.2549 63.4569 45.4343 57.5835 50.2637C54.298 52.9649 50.0841 54.5885 45.8617 54.7714C43.6113 54.8686 41.3591 54.5561 39.2437 53.7801C39.5867 54.8668 40.02 55.9131 40.6823 56.8335C41.7229 58.2798 43.2592 59.3036 44.8833 60.0307C47.282 61.1046 49.8955 61.5418 52.5066 61.4287C56.7284 61.2458 60.9429 59.6222 64.2278 56.921C70.1018 52.0916 73.6174 43.9122 72.9619 36.3327Z" fill="#EA3942"/>
<path d="M37.5525 23.4975C37.5525 26.2017 35.3644 28.3941 32.6654 28.3941C29.9664 28.3941 27.7783 26.2017 27.7783 23.4975C27.7783 20.7932 29.9664 18.6008 32.6654 18.6008C35.3644 18.6008 37.5525 20.7932 37.5525 23.4975Z" fill="#F3E8D7"/>
<path d="M70.4335 17.0077C64.803 12.0683 56.8324 8.57573 47.9884 7.17406C40.1466 5.93079 32.0442 5.68923 25.1735 6.49464C17.5904 7.38321 11.6603 9.49794 8.0244 12.6101C7.83214 12.7746 7.6472 12.9422 7.46776 13.1122C2.50621 16.9906 -0.0755751 21.4659 0.00193958 26.0586C0.0690782 30.0551 1.3142 33.1299 3.80931 35.4587C5.99559 37.4994 8.84838 38.7555 11.869 40.085C15.6184 41.7356 19.4953 43.4418 22.5483 46.8249C25.6727 50.2868 26.6908 53.758 27.6747 57.1154C28.5047 59.9444 29.3623 62.8706 31.454 65.5889C33.7916 68.6277 37.3005 70.9846 42.4965 73.0058C44.5271 73.7959 46.7695 74.1842 49.0992 74.1842C52.7833 74.1842 56.6859 73.2119 60.3083 71.3155C65.1765 68.7659 71.9361 63.3513 76.5364 52.0377C78.7599 47.5422 80.0001 42.5275 80.0001 37.5355C80.0001 29.597 76.692 22.4988 70.4335 17.0077ZM59.2048 69.2013C53.8911 71.9845 47.967 72.5752 43.3583 70.7822C32.9805 66.7454 31.5803 61.971 29.9592 56.4427C28.9485 52.9966 27.8035 49.0913 24.3135 45.2251C20.9187 41.4635 16.6194 39.5707 12.826 37.9012C7.06005 35.3627 2.5056 33.358 2.3817 26.0182C2.34996 24.1267 2.88646 22.3875 3.73241 20.8268C3.71715 21.0782 3.70677 21.3307 3.70677 21.587C3.70677 25.8855 4.97631 29.1225 7.58739 31.4836C9.8756 33.5525 12.8645 34.7187 16.0286 35.9528C19.8933 37.4603 23.8893 39.0191 26.9154 42.3722C29.9531 45.7382 30.9291 49.4197 31.8721 52.9801C32.7259 56.2011 33.5316 59.2435 35.7301 61.8915C38.1874 64.852 41.949 66.7576 47.5679 67.889C49.2018 68.218 50.8351 68.3806 52.4537 68.3806C57.1186 68.3806 61.6597 67.0291 65.7222 64.4197C63.4205 66.6653 61.1488 68.1831 59.2048 69.2013ZM74.477 50.8397C74.4368 50.9027 74.4007 50.9699 74.3715 51.0415C74.358 51.0757 74.3434 51.1081 74.3299 51.1418C72.4769 54.8349 69.9055 58.1409 66.7805 60.7051C63.647 63.2767 58.838 66.0109 52.5587 66.0109C51.1274 66.0109 49.6186 65.8684 48.0372 65.5504C37.082 63.344 35.7985 58.5005 34.1737 52.3679C33.2045 48.7115 32.1064 44.567 28.6818 40.7724C25.2778 37.001 20.8229 35.263 16.8922 33.7298C10.8558 31.3748 6.08776 29.5151 6.08776 21.587C6.08776 18.8118 7.25963 16.4017 9.57103 14.4239C14.1218 10.5284 23.0879 8.40388 33.7123 8.40388C38.1263 8.40388 42.8279 8.77081 47.6167 9.52974C56.0218 10.8623 63.5682 14.1555 68.8649 18.802C74.5924 23.8271 77.6191 30.3052 77.6191 37.5355C77.6191 42.1135 76.4943 46.7093 74.477 50.8397Z" fill="#1A1A1A"/>
<path d="M73.0608 38.8468C72.4035 38.793 71.8297 39.2791 71.7748 39.9353C71.2853 45.7572 68.3831 51.6085 64.1369 55.4252C62.5798 54.188 61.9683 52.1925 61.0289 49.122C60.2471 46.5639 59.2736 43.3802 57.3778 39.4901C55.5694 35.778 52.2088 32.6298 48.7304 30.15C51.3598 28.6138 57.7147 25.7224 67.733 26.1731C69.6685 28.7177 70.9807 31.6018 71.5374 34.6552C71.6423 35.2307 72.1428 35.6337 72.7068 35.6337C72.7782 35.6337 72.8502 35.627 72.9223 35.6141C73.5692 35.4955 73.9977 34.8742 73.8793 34.2259C73.2238 30.6319 71.6417 27.2537 69.3059 24.3158C69.2894 24.2926 69.2711 24.27 69.2522 24.2473C67.1453 21.6165 64.4323 19.3421 61.2346 17.587C55.3386 14.3501 48.0315 12.4989 38.2384 11.7602C28.9818 11.0612 21.4678 12.0715 15.2666 14.8467C12.3736 16.1413 10.4332 17.9227 9.63857 19.9702C9.63246 19.9861 9.62636 20.002 9.62026 20.0185C9.4225 20.542 9.29738 21.082 9.25221 21.6366C9.06117 23.9734 10.3747 26.4538 12.6806 28.1086C13.9476 29.0186 15.3618 29.6167 16.4525 30.0356C17.0659 30.2723 17.7544 29.9647 17.99 29.3495C18.2256 28.7349 17.9192 28.0444 17.3052 27.809C16.2883 27.4176 15.1079 26.9173 14.0673 26.1694C12.7904 25.2527 11.4782 23.6315 11.6253 21.8311C11.632 21.7522 11.6424 21.6678 11.6564 21.5798C17.2423 21.4728 23.5875 22.5797 26.596 23.1832C26.5905 23.2872 26.588 23.3924 26.588 23.4976C26.588 26.855 29.3145 29.5867 32.6653 29.5867C34.8278 29.5867 36.729 28.4487 37.8063 26.7394C41.7724 28.5025 51.8255 33.5324 55.2385 40.5365C57.0519 44.2583 57.9949 47.3424 58.7523 49.8204C59.6917 52.8915 60.4186 55.268 62.2265 56.9339C59.3584 58.9 55.8764 60.0888 52.4547 60.2374C49.9193 60.3475 47.5353 59.9115 45.3692 58.9422C43.7029 58.1961 42.4511 57.2525 41.6478 56.1364C40.6994 54.8179 40.2727 53.1588 39.8211 51.4024L39.7545 51.1431C38.7224 47.1455 37.4242 42.9521 34.9297 39.3666C32.2289 35.4857 28.0565 32.2769 22.5274 29.8295C21.9262 29.5629 21.223 29.8356 20.9575 30.4386C20.692 31.041 20.9636 31.7449 21.5654 32.0115C26.6893 34.2798 30.5285 37.2133 32.9766 40.7309C35.2562 44.007 36.4733 47.9588 37.4492 51.7406L37.5158 51.9981C38.0022 53.8908 38.5058 55.8484 39.7173 57.5313C40.7689 58.9929 42.3436 60.2001 44.3981 61.1199C46.6533 62.1296 49.1021 62.6396 51.6893 62.6396C51.9768 62.6396 52.2667 62.6329 52.5579 62.6206C57.0452 62.4255 61.4422 60.7395 64.9456 57.8732C64.9486 57.8708 64.9517 57.8683 64.9541 57.8659C64.9639 57.8579 64.9736 57.8506 64.9828 57.8432C70.1464 53.5979 73.5717 46.9785 74.1466 40.1353C74.2022 39.4791 73.7157 38.9018 73.0608 38.8468ZM36.3512 23.7679C36.2542 24.4522 36.2279 24.8827 35.6579 25.6686C34.9852 26.5963 33.8952 27.2017 32.6653 27.2017C30.6402 27.2017 28.991 25.5616 28.9696 23.5373C29.0465 22.28 29.5012 21.5847 29.5012 21.5847C30.1494 20.512 31.325 19.7934 32.6653 19.7934C34.7039 19.7934 36.3622 21.4556 36.3622 23.4976C36.3622 23.5887 36.3573 23.6786 36.3512 23.7679ZM38.659 24.5017C38.7133 24.1746 38.7426 23.8394 38.7426 23.4976C38.7426 20.1396 36.0161 17.4078 32.6653 17.4078C30.2544 17.4078 28.167 18.8217 27.1856 20.8649C24.3621 20.2906 18.5192 19.251 12.9522 19.1892C13.6437 18.4713 14.6825 17.7203 16.2377 17.0244C22.069 14.4149 29.207 13.4713 38.0596 14.1385C47.5023 14.8509 54.5031 16.6116 60.0902 19.6791C62.1593 20.8147 64.0032 22.1864 65.584 23.7391C54.898 23.7428 48.5967 27.3075 46.5569 28.689C43.4209 26.7015 40.4345 25.2796 38.659 24.5017Z" fill="#1A1A1A"/>
</g>
<defs>
<clipPath id="clip0_27_3363">
<rect width="80" height="80" fill="white"/>
</clipPath>
</defs>
</svg>
