<svg width="34" height="34" viewBox="0 0 34 34" fill="none" xmlns="http://www.w3.org/2000/svg">
<path d="M21.1724 5.3125C22.9736 5.79695 24.6159 6.74617 25.9348 8.06509C27.2538 9.38401 28.203 11.0263 28.6874 12.8276" stroke="#1A1A1A" stroke-width="1.5" stroke-linecap="round" stroke-linejoin="round"/>
<path d="M20.0728 9.41904C21.1533 9.70972 22.1384 10.2792 22.9296 11.0704C23.7208 11.8616 24.2903 12.8467 24.5809 13.9272" stroke="#1A1A1A" stroke-width="1.5" stroke-linecap="round" stroke-linejoin="round"/>
<path d="M12.2825 16.5771C13.3843 18.8304 15.2105 20.6488 17.4686 21.7409C17.6339 21.8192 17.8168 21.853 17.9992 21.8391C18.1817 21.8251 18.3573 21.7638 18.5088 21.6612L21.8344 19.4448C21.9813 19.3467 22.1503 19.2868 22.3262 19.2705C22.502 19.2542 22.6792 19.2819 22.8416 19.3513L29.0626 22.0182C29.2739 22.1079 29.4503 22.2639 29.5653 22.4626C29.6802 22.6614 29.7275 22.8921 29.7001 23.12C29.5031 24.6585 28.7523 26.0724 27.5881 27.0972C26.4238 28.122 24.926 28.6874 23.375 28.6875C18.5845 28.6875 13.9903 26.7845 10.6029 23.3971C7.21551 20.0097 5.3125 15.4155 5.3125 10.625C5.31264 9.07409 5.87805 7.57642 6.90286 6.41235C7.92767 5.24829 9.34162 4.49766 10.88 4.30099C11.1079 4.2735 11.3386 4.3208 11.5373 4.43578C11.7361 4.55076 11.892 4.72718 11.9818 4.93849L14.6508 11.1647C14.7195 11.3256 14.7473 11.5009 14.7319 11.6752C14.7166 11.8494 14.6584 12.0171 14.5626 12.1635L12.3526 15.5401C12.2523 15.6922 12.1931 15.8676 12.1809 16.0494C12.1686 16.2311 12.2036 16.4129 12.2825 16.5771V16.5771Z" stroke="#1A1A1A" stroke-width="1.5" stroke-linecap="round" stroke-linejoin="round"/>
</svg>
